# xmcd
# 
# Track frame offsets:
#     150
#     3405
#     20692
#     39786
#     56312
#     73828
#     91218
#     106933
#     123778
#     140291
#     157013
#     165744
#     180483
#     197844
#     212243
#     214645
#     243796
# 
# Disc length: 3755
# 
# Revision: 4
# Processed by: cddbd v1.5.2PL0 Copyright (c) Steve Scherf et al.
# Submitted via: BonkEnc v1.0.8
# 
DISCID=dd0ea911
DTITLE=FORT MINOR - The Rising Tied
DYEAR=2005
DGENRE=Hip Hop
TTITLE0=Introduction
TTITLE1=Remember The Name feat.Styles Of Beyond
TTITLE2=Right Now feat.Black Thought Of The Roots and Styles Of Beyond
TTITLE3=Petrified
TTITLE4=Feel Like Home feat.Styeles Of Beyond
TTITLE5=where'd You Go feat.Holly Brook &Jonan Matranga
TTITLE6=In Stereo
TTITLE7=Back Home feat.Common and Styeles Of Beyond
TTITLE8=Cigarettes
TTITLE9=Believe Me feat.Bobo and Styeles Of Beyond
TTITLE10=Get Me Gone
TTITLE11=High Road feat.John Legend
TTITLE12=Kenji
TTITLE13=Red To Black feat.Kenna,Jonah Matranga and Styeles Of Beyond
TTITLE14=The Battle feat.Celph Titled
TTITLE15=Slip Out The Back feat.Mr.Hahn
TTITLE16=Data
EXTD=YEAR: 2005
EXTT0=
EXTT1=
EXTT2=
EXTT3=
EXTT4=
EXTT5=
EXTT6=
EXTT7=
EXTT8=
EXTT9=
EXTT10=
EXTT11=
EXTT12=
EXTT13=
EXTT14=
EXTT15=
EXTT16=
PLAYORDER=
